<svg width="256" height="256" viewBox="0 0 256 256" fill="none" xmlns="http://www.w3.org/2000/svg">
  <path d="M128.58 27c-12.448 0-23.484 6.405-29.887 16.214L86.25 64.78H60.133C39.624 64.78 23 81.406 23 101.915c0 12.447 6.405 23.484 16.214 29.886l12.276 8.007-12.276 8.008C29.405 154.219 23 165.255 23 177.703c0 20.51 16.624 37.133 37.133 37.133H98.07l.623.969c6.403 9.81 17.439 16.195 29.887 16.195 20.509 0 37.133-16.624 37.133-37.133v-13.808l11.653-7.608 11.85 7.725c6.19 4.022 13.564 6.386 21.491 6.386 20.509 0 37.133-16.624 37.133-37.133 0-12.447-6.405-23.483-16.215-29.886l-11.634-7.589 11.634-7.589c9.81-6.403 16.215-17.44 16.215-29.887 0-20.509-16.624-37.133-37.133-37.133-7.927 0-15.301 2.364-21.491 6.386l-11.85 7.725-11.653-7.608V64.133C165.713 43.624 149.089 27 128.58 27Z" stroke="currentColor" stroke-width="12" stroke-linecap="round" stroke-linejoin="round"/>
  <path d="M98.07 64.78h37.97c16.075 0 29.11 13.035 29.11 29.11v22.48l19.114 12.45c13.473 8.777 17.298 26.807 8.54 40.28-5.29 8.144-14.306 12.564-23.516 12.564-5.173 0-10.404-1.39-15.992-5.018l-19.136-12.47-19.136 12.47c-15.954 10.386-37.278 5.87-47.654-10.084-8.758-13.473-4.933-31.503 8.54-40.28l19.114-12.45V93.89c0-16.075 13.036-29.11 29.11-29.11" stroke="currentColor" stroke-width="12" stroke-linecap="round" stroke-linejoin="round"/>
  <path d="M51.49 139.808V116.35c0-18.173 14.733-32.905 32.905-32.905h23.198l11.8-19.007c9.211-14.826 28.68-19.393 43.486-10.182 14.826 9.21 19.393 28.679 10.183 43.486l-11.695 18.837 11.695 18.836c9.21 14.807 4.643 34.276-10.183 43.486-5.174 3.214-10.894 4.736-16.549 4.736-10.65 0-21.054-5.4-26.937-14.918l-11.8-19.006H84.395c-18.172 0-32.905-14.733-32.905-32.905" stroke="currentColor" stroke-width="12" stroke-linecap="round" stroke-linejoin="round"/>
  <path d="M204.51 139.808V116.35c0-18.173-14.733-32.905-32.905-32.905h-23.198l-11.8-19.007c-9.211-14.826-28.68-19.393-43.486-10.182-14.826 9.21-19.393 28.679-10.183 43.486l11.695 18.837-11.695 18.836c-9.21 14.807-4.643 34.276 10.183 43.486 5.174 3.214 10.894 4.736 16.549 4.736 10.65 0 21.054-5.4 26.937-14.918l11.8-19.006h23.198c18.172 0 32.905-14.733 32.905-32.905" stroke="currentColor" stroke-width="12" stroke-linecap="round" stroke-linejoin="round"/>
</svg>
